<?xml version="1.0" encoding="UTF-8"?>
<svg width="92px" height="89px" viewBox="0 0 92 89" version="1.1" xmlns="http://www.w3.org/2000/svg" xmlns:xlink="http://www.w3.org/1999/xlink">
    <!-- Generator: Sketch 52.5 (67469) - http://www.bohemiancoding.com/sketch -->
    <title>Group</title>
    <desc>Created with Sketch.</desc>
    <g id="Page-1" stroke="none" stroke-width="1">
        <g id="Artboard" transform="translate(-744.000000, -1258.000000)" >
            <g id="Group" transform="translate(744.000000, 1258.000000)">
                <path d="M6.453,21.066 C-1.629,32.682 -0.622,47.794 5.551,60.137 C5.698,60.433 5.852,60.724 6.004,61.016 C6.101,61.2 6.192,61.389 6.293,61.571 C6.35,61.68 6.414,61.787 6.473,61.891 C6.578,62.088 6.686,62.275 6.795,62.467 C6.987,62.805 7.184,63.141 7.384,63.477 C7.495,63.662 7.605,63.846 7.72,64.031 C7.943,64.39 8.171,64.747 8.404,65.101 C8.501,65.252 8.596,65.404 8.696,65.55 C9.018,66.03 9.347,66.51 9.686,66.981 C9.695,66.993 9.705,67.005 9.714,67.017 C9.768,67.093 9.827,67.167 9.881,67.243 C10.174,67.648 10.478,68.048 10.783,68.444 C10.896,68.588 11.01,68.732 11.123,68.877 C11.396,69.221 11.674,69.562 11.957,69.902 C12.063,70.029 12.169,70.157 12.276,70.282 C12.655,70.728 13.043,71.174 13.439,71.61 C13.446,71.618 13.455,71.627 13.462,71.634 C13.478,71.653 13.492,71.664 13.506,71.682 C13.892,72.104 14.287,72.517 14.688,72.929 C14.812,73.056 14.939,73.184 15.066,73.311 C15.376,73.623 15.691,73.928 16.009,74.236 C16.138,74.358 16.266,74.484 16.395,74.602 C16.82,75.002 17.249,75.395 17.687,75.778 C17.695,75.786 17.7,75.792 17.708,75.795 C17.782,75.861 17.859,75.925 17.933,75.986 C18.319,76.321 18.712,76.653 19.107,76.979 C19.268,77.109 19.431,77.238 19.593,77.367 C19.916,77.626 20.243,77.881 20.572,78.132 C20.746,78.265 20.92,78.398 21.095,78.53 C21.458,78.796 21.824,79.06 22.193,79.317 C22.328,79.415 22.458,79.508 22.593,79.601 C22.63,79.627 22.664,79.655 22.702,79.68 C23.053,79.92 23.41,80.154 23.768,80.385 C23.922,80.488 24.075,80.593 24.23,80.693 C24.779,81.04 25.336,81.383 25.9,81.716 C26.053,81.803 26.208,81.889 26.361,81.976 C26.775,82.215 27.192,82.45 27.614,82.679 C27.842,82.802 28.077,82.918 28.307,83.035 C28.606,83.192 28.902,83.35 29.204,83.501 C29.273,83.536 29.344,83.569 29.412,83.602 C29.533,83.661 29.656,83.718 29.779,83.78 C30.249,84.005 30.722,84.224 31.2,84.438 C31.302,84.483 31.4,84.528 31.501,84.572 C32.048,84.811 32.601,85.043 33.159,85.262 C33.293,85.316 33.428,85.367 33.563,85.421 C34.079,85.619 34.602,85.816 35.127,86 C35.194,86.023 35.258,86.045 35.324,86.067 C35.901,86.269 36.483,86.456 37.069,86.638 C37.209,86.679 37.349,86.724 37.49,86.765 C38.087,86.945 38.676,87.159 39.292,87.273 C78.376,94.4 89.729,63.786 89.729,63.786 C80.194,76.208 63.269,79.485 47.233,75.837 C46.625,75.7 46.036,75.511 45.443,75.335 C45.292,75.29 45.145,75.245 44.996,75.199 C44.417,75.021 43.844,74.835 43.273,74.638 C43.195,74.611 43.116,74.581 43.036,74.553 C42.525,74.373 42.02,74.184 41.516,73.99 C41.374,73.933 41.232,73.88 41.09,73.823 C40.538,73.605 39.99,73.378 39.449,73.14 C39.337,73.093 39.231,73.043 39.121,72.994 C38.656,72.784 38.196,72.572 37.736,72.351 C37.604,72.287 37.471,72.224 37.337,72.159 C36.978,71.984 36.621,71.798 36.267,71.615 C36.029,71.49 35.788,71.371 35.553,71.241 C35.119,71.009 34.694,70.767 34.27,70.521 C34.126,70.44 33.981,70.363 33.836,70.28 C33.273,69.948 32.716,69.604 32.165,69.256 C32.013,69.159 31.864,69.056 31.714,68.956 C31.315,68.698 30.917,68.436 30.526,68.165 C30.396,68.079 30.27,67.983 30.143,67.896 C29.765,67.629 29.391,67.358 29.019,67.084 C28.851,66.96 28.685,66.831 28.521,66.707 C28.181,66.446 27.842,66.185 27.507,65.914 C27.356,65.794 27.204,65.673 27.055,65.552 C26.629,65.201 26.208,64.85 25.792,64.489 C25.749,64.45 25.701,64.413 25.654,64.373 C25.205,63.977 24.762,63.572 24.326,63.165 C24.199,63.044 24.076,62.927 23.952,62.805 C23.628,62.498 23.31,62.188 22.998,61.87 C22.873,61.745 22.747,61.621 22.624,61.497 C22.226,61.089 21.836,60.677 21.453,60.258 C21.434,60.237 21.414,60.219 21.395,60.196 C20.99,59.754 20.595,59.301 20.207,58.844 C20.102,58.719 20,58.598 19.896,58.475 C19.607,58.127 19.321,57.775 19.042,57.418 C18.937,57.291 18.832,57.159 18.728,57.028 C18.392,56.591 18.063,56.157 17.741,55.714 C8.838,43.57 5.639,26.82 12.755,13.065" id="Path"></path>
                <path d="M31.54,11.28 C25.695,19.691 26.013,30.949 30.572,39.844 C31.337,41.335 32.196,42.782 33.157,44.159 C34.032,45.414 35.003,46.907 36.165,47.915 C36.587,48.379 37.027,48.832 37.477,49.276 C37.591,49.393 37.707,49.504 37.823,49.619 C38.259,50.041 38.703,50.458 39.162,50.862 C39.181,50.878 39.198,50.896 39.217,50.909 C39.222,50.915 39.227,50.917 39.23,50.923 C39.738,51.367 40.262,51.796 40.795,52.217 C40.913,52.307 41.03,52.402 41.15,52.494 C41.684,52.903 42.228,53.306 42.787,53.689 C42.804,53.701 42.818,53.712 42.834,53.726 C43.08,53.895 43.332,54.054 43.581,54.217 C43.701,54.295 43.815,54.378 43.935,54.451 C44.333,54.706 44.737,54.955 45.148,55.194 C45.206,55.23 45.263,55.259 45.319,55.293 C45.673,55.497 46.032,55.698 46.392,55.893 C46.517,55.964 46.645,56.026 46.773,56.092 C47.022,56.222 47.27,56.354 47.523,56.481 C47.56,56.499 47.599,56.516 47.636,56.532 C48.151,56.786 48.671,57.03 49.201,57.261 C49.314,57.311 49.431,57.356 49.547,57.404 C49.97,57.584 50.399,57.759 50.829,57.925 C51.012,57.994 51.196,58.06 51.379,58.127 C51.769,58.272 52.162,58.404 52.557,58.537 C52.736,58.594 52.911,58.652 53.09,58.707 C53.652,58.881 54.207,59.102 54.793,59.199 C84.969,64.199 91.937,40.965 91.937,40.965 C85.656,50.008 73.495,54.325 60.517,50.956 C59.941,50.805 59.373,50.64 58.809,50.462 C58.636,50.409 58.466,50.353 58.295,50.296 C57.894,50.166 57.495,50.027 57.099,49.884 C56.918,49.819 56.737,49.752 56.559,49.684 C56.125,49.517 55.697,49.345 55.272,49.164 C55.156,49.114 55.039,49.07 54.925,49.018 C54.392,48.787 53.868,48.541 53.35,48.288 C53.084,48.157 52.823,48.019 52.561,47.886 C52.41,47.807 52.257,47.729 52.105,47.651 C51.769,47.468 51.435,47.28 51.105,47.088 C51.027,47.043 50.946,47.001 50.867,46.953 C50.458,46.714 50.055,46.468 49.657,46.215 C49.534,46.136 49.416,46.051 49.293,45.971 C49.03,45.8 48.767,45.627 48.509,45.452 C47.953,45.069 47.411,44.667 46.878,44.259 C46.755,44.162 46.631,44.068 46.511,43.971 C40.83,39.486 36.328,33.356 34.187,26.407 C31.943,19.199 32.426,11.108 36.313,4.542" id="Path"></path>
                <path d="M52.639,3.968 C49.194,9.038 48.855,15.336 51.246,20.936 C53.767,26.88 58.933,31.543 64.963,33.753 C65.212,33.846 65.46,33.928 65.712,34.014 C65.822,34.048 65.931,34.085 66.042,34.118 C66.397,34.23 66.75,34.36 67.117,34.429 C83.779,37.649 88.299,25.878 89.502,24.146 C85.543,29.846 78.89,31.214 70.727,29.233 C70.082,29.075 69.373,28.843 68.752,28.623 C67.955,28.339 67.17,28.015 66.406,27.649 C64.957,26.952 63.575,26.107 62.294,25.14 C54.99,19.598 50.451,9.024 55.218,0.413" id="Path"></path>
            </g>
        </g>
    </g>
</svg>